<?xml version="1.0" encoding="UTF-8" standalone="no"?>
<!-- Created with Inkscape (http://www.inkscape.org/) -->

<svg
   xmlns:dc="http://purl.org/dc/elements/1.1/"
   xmlns:cc="http://creativecommons.org/ns#"
   xmlns:rdf="http://www.w3.org/1999/02/22-rdf-syntax-ns#"
   xmlns:svg="http://www.w3.org/2000/svg"
   xmlns="http://www.w3.org/2000/svg"
   xmlns:sodipodi="http://sodipodi.sourceforge.net/DTD/sodipodi-0.dtd"
   xmlns:inkscape="http://www.inkscape.org/namespaces/inkscape"
   width="500"
   height="500"
   id="svg3075"
   version="1.1"
   inkscape:version="0.48.4 r9939"
   sodipodi:docname="New document 2">
  <defs
     id="defs3077" />
  <sodipodi:namedview
     id="base"
     pagecolor="#ffffff"
     bordercolor="#666666"
     borderopacity="1.0"
     inkscape:pageopacity="0.0"
     inkscape:pageshadow="2"
     inkscape:zoom="0.35"
     inkscape:cx="375"
     inkscape:cy="291.42857"
     inkscape:document-units="px"
     inkscape:current-layer="layer1"
     showgrid="false"
     inkscape:snap-page="true"
     width="1488.19px"
     inkscape:window-width="823"
     inkscape:window-height="615"
     inkscape:window-x="791"
     inkscape:window-y="101"
     inkscape:window-maximized="0" />
  <metadata
     id="metadata3080">
    <rdf:RDF>
      <cc:Work
         rdf:about="">
        <dc:format>image/svg+xml</dc:format>
        <dc:type
           rdf:resource="http://purl.org/dc/dcmitype/StillImage" />
        <dc:title></dc:title>
      </cc:Work>
    </rdf:RDF>
  </metadata>
  <g
     inkscape:label="Layer 1"
     inkscape:groupmode="layer"
     id="layer1"
     transform="translate(0,-552.36547)">
    <path
       d="m 451.13589,774.2439 c 0,8.06902 -3.10038,12.10536 -9.28285,12.10536 -4.84067,0 -7.26101,-2.14979 -7.26101,-6.45668 0,-3.22835 1.47706,-4.84069 4.43851,-4.84069 2.42399,0 3.6305,1.34911 3.6305,4.03268 0,2.15711 -1.07855,3.4989 -3.22833,4.03635 1.07123,0.27055 1.87558,0.40582 2.42033,0.40582 4.57013,0 6.86251,-2.95779 6.86251,-8.87701 0,-9.14026 -3.10038,-13.7177 -9.28284,-13.7177 -3.49889,0 -5.11489,2.69454 -4.84068,8.06902 -2.69455,-1.61234 -4.03634,-4.03269 -4.03634,-7.26103 0,-4.57012 2.68358,-6.8625 8.06902,-6.8625 0.808,0 1.47707,0.14274 2.02182,0.40583 -6.18978,-2.95413 -9.28284,-7.66685 -9.28284,-14.12353 0,-4.57013 1.21382,-7.92643 3.63417,-10.08353 -0.27055,5.64868 2.35087,13.25337 7.86793,22.7958 5.50609,9.5534 8.2701,16.33547 8.2701,20.37181 m -4.44216,13.7177 c -3.4989,2.96144 -8.46753,4.44216 -14.92422,4.44216 -8.06901,0 -12.10169,-5.25016 -12.10169,-15.73953 l 0,-56.0773 c 0,-7.26102 -1.75859,-11.69588 -5.25017,-13.30822 l 0,-0.808 c 3.76213,-2.14978 8.2043,-6.18612 13.31918,-12.10536 l 0.80434,0 0,78.67204 c 0,9.95556 3.63052,14.92421 10.89154,14.92421 l 7.26102,0 z m -2.42035,13.31918 c -3.76944,4.03268 -7.12573,12.76711 -10.08352,26.21792 -2.6909,11.56425 -6.72723,18.69731 -12.10171,21.3882 -1.34909,0.808 -2.82982,1.20651 -4.44216,1.20651 -5.64868,0 -8.47119,-2.69089 -8.47119,-8.06901 0,-3.76945 1.61599,-5.64869 4.84434,-5.64869 2.95413,0 4.43485,1.34179 4.43485,4.03635 0,2.68358 -1.35276,4.03268 -4.03634,4.03268 -0.808,0 -1.47707,-0.13514 -2.01452,-0.39852 0.808,2.14979 2.68724,3.22834 5.64869,3.22834 2.95779,0 5.57921,-1.61599 7.87159,-4.84434 2.27775,-3.22468 3.42576,-6.32506 3.42576,-9.28285 0,-4.84067 -1.75493,-7.26101 -5.25016,-7.26101 -1.88289,0 -3.8974,1.34179 -6.04719,4.03633 -0.27055,-0.808 -0.40583,-1.61599 -0.40583,-2.42399 0,-5.38178 2.42034,-8.06902 7.26102,-8.06902 2.68723,0 5.10758,1.48072 7.26468,4.44216 -1.07855,-2.42034 -1.616,-4.84068 -1.616,-7.26102 0,-3.49889 1.41491,-6.8625 4.24107,-10.09084 2.82252,-3.22834 5.97774,-4.97596 9.47662,-5.2392 m -17.75037,78.26254 c -3.7731,3.76213 -7.53523,12.10171 -11.29736,25.01506 -2.9651,11.29371 -7.26468,18.15621 -12.91336,20.57655 -1.07489,0.53745 -2.28506,0.808 -3.62685,0.808 -5.64869,0 -8.47485,-2.69089 -8.47485,-8.06902 0,-3.49889 1.61235,-5.24651 4.84068,-5.24651 2.69089,0 4.03634,1.21383 4.03634,3.63417 0,2.68358 -1.34545,4.03268 -4.03634,4.03268 -0.53379,0 -1.20652,-0.27055 -2.01452,-0.80434 0.808,2.68358 2.82252,4.03268 6.05086,4.03268 2.95413,0 5.58287,-1.61234 7.86793,-4.84068 2.28507,-3.22834 3.42943,-6.32871 3.42943,-9.28284 0,-4.57745 -1.61599,-6.8552 -4.84434,-6.8552 -1.88289,0 -3.8974,1.20651 -6.04719,3.62685 -0.27055,-0.808 -0.40583,-1.47706 -0.40583,-2.01451 0,-5.11123 2.42034,-7.66685 7.26101,-7.66685 2.68359,0 5.10392,1.47706 7.26103,4.43852 -0.80434,-2.15345 -1.20652,-4.30324 -1.20652,-6.45302 0,-3.76945 1.47342,-7.19887 4.43486,-10.29194 2.95779,-3.0894 6.18612,-4.6396 9.68502,-4.6396 m -15.3337,-172.26461 c 0,7.79481 -3.08941,11.69588 -9.27553,11.69588 -5.11123,0 -7.6705,-2.14979 -7.6705,-6.45668 0,-2.95413 1.48071,-4.43485 4.44216,-4.43485 2.68724,0 4.03634,1.20651 4.03634,3.62686 0,2.15709 -1.07855,3.50254 -3.22834,4.03633 1.07124,0.5411 1.87924,0.808 2.42034,0.808 4.29958,0 6.45667,-2.95779 6.45667,-8.87703 0,-3.22833 -0.88112,-6.38355 -2.62142,-9.48392 -1.75859,-3.08575 -4.1058,-4.63229 -7.06359,-4.63229 -3.76945,0 -5.5134,2.81886 -5.24651,8.46754 -2.68723,-1.61234 -4.03633,-4.03268 -4.03633,-7.26102 0,-5.37812 3.3636,-7.79847 10.09084,-7.26468 -6.99779,-2.68358 -10.48937,-7.52426 -10.48937,-14.52204 0,-4.29957 1.07124,-7.52792 3.22834,-9.68502 0.26324,5.91923 3.49158,13.65555 9.68137,23.20163 6.18612,9.54609 9.27553,16.48172 9.27553,20.78129 m 36.71824,142.0067 -55.67514,55.6788 c -3.77309,3.76213 -5.64867,7.52791 -5.64867,11.29736 0,2.68358 2.68358,6.58464 8.06902,11.69588 -4.57745,-0.27056 -9.14757,-2.6909 -13.7177,-7.26103 -2.15711,-2.1571 -3.22834,-4.7054 -3.22834,-7.6632 0,-4.03633 1.87924,-8.06901 5.64868,-12.10534 l 39.93926,-39.5371 c 4.0327,-4.3069 6.05451,-7.93375 6.05451,-10.89154 l 0,-2.01817 0.39852,-0.808 c 2.95779,0.808 5.91558,1.21383 8.87702,1.21383 1.07124,0 4.03633,-0.14273 8.87702,-0.40583 l 0.40582,0.80434 z m -72.21535,-55.2693 c 0,-2.42034 -1.07854,-3.63417 -3.22833,-3.63417 -2.42034,0 -3.63417,1.21383 -3.63417,3.63417 0,2.42033 1.21383,3.62684 3.63417,3.62684 2.14979,0 3.22833,-1.20651 3.22833,-3.62684 m -31.46807,-31.06957 c 0,-2.42033 -1.21383,-3.62686 -3.63417,-3.62686 -2.42034,0 -3.63051,1.20653 -3.63051,3.62686 0,2.1571 1.21017,3.22834 3.63051,3.22834 2.42034,0 3.63417,-1.07124 3.63417,-3.22834 m 37.92476,-114.98079 c 0,5.64869 -2.6909,8.47485 -8.06903,8.47485 -3.49888,0 -5.25016,-1.61235 -5.25016,-4.84068 0,-2.68358 1.21383,-4.03268 3.63417,-4.03268 2.68723,0 4.03633,1.3491 4.03633,4.03268 0,0.54475 -0.27055,1.20652 -0.808,2.01452 2.68724,-0.808 4.03634,-2.82252 4.03634,-6.0472 0,-2.95779 -1.616,-5.57921 -4.84068,-7.87159 -3.22834,-2.27776 -6.32871,-3.42578 -9.2865,-3.42578 -4.57378,0 -6.8552,1.61234 -6.8552,4.84069 0,1.88655 1.21018,3.8974 3.63052,6.04719 -0.808,0.27055 -1.48073,0.40949 -2.01452,0.40949 -5.11488,0 -7.6705,-2.424 -7.6705,-7.26467 0,-2.68359 1.48072,-5.10392 4.44216,-7.26103 -2.15709,0.80799 -4.30688,1.20652 -6.45667,1.20652 -3.76945,0 -7.20252,-1.46977 -10.28827,-4.43486 -3.10038,-2.95779 -4.64326,-6.18247 -4.64326,-9.68136 3.76579,3.76944 12.10536,7.53157 25.01506,11.2937 11.29736,2.9651 18.15986,7.26468 20.5802,12.91336 0.53745,1.07855 0.80801,2.28506 0.80801,3.62685 m -40.34511,231.57757 c 0,-2.42034 -1.3491,-3.62684 -4.03633,-3.62684 -2.42034,0 -3.63417,1.2065 -3.63417,3.62684 0,2.69089 1.21383,4.03268 3.63417,4.03268 2.68723,0 4.03633,-1.34179 4.03633,-4.03268 m -0.40947,-44.37412 c 0,-2.42034 -1.34912,-3.63417 -4.03268,-3.63417 -2.42036,0 -3.62686,1.21383 -3.62686,3.63417 0,2.68358 1.34179,4.03634 4.03268,4.03634 2.42033,0 3.62686,-1.35276 3.62686,-4.03634 m -1.61235,-126.27815 c 0,-2.68358 -1.34911,-4.03633 -4.03634,-4.03633 -2.42034,0 -3.62685,1.35275 -3.62685,4.03633 0,2.42034 1.20651,3.62686 3.62685,3.62686 2.68723,0 4.03634,-1.20652 4.03634,-3.62686 m 40.75092,66.96519 -52.44679,0 0,-13.30822 c 0,-3.49158 1.13339,-6.51883 3.42576,-9.07809 2.28507,-2.55562 5.04177,-3.8316 8.27011,-3.8316 l 4.03268,0 c -0.5411,-4.03635 -2.01086,-6.71992 -4.4312,-8.07268 l 0,-0.80435 c 3.49158,-1.87923 7.79482,-5.78395 12.90971,-11.70318 l 0.80799,0 0,37.11676 4.43121,0 0,-37.92476 c 0,-6.44936 -1.61236,-10.48204 -4.84069,-12.09805 l 0,-0.80433 c 2.42034,-1.61601 6.71991,-5.92289 12.9097,-12.91336 l 1.21749,0 0,63.7405 4.43119,0 0,-52.44315 c 0,-6.45302 -1.61234,-10.48935 -4.84068,-12.10169 l 0,-0.808 c 2.68723,-1.61234 6.99047,-5.91192 12.9097,-12.90971 l 1.21382,0 0,87.94391 z m 2.82252,160.17022 c -5.91923,0.26324 -13.65189,3.49158 -23.20163,9.68136 -9.54609,6.18613 -16.47441,9.28651 -20.77033,9.28651 -7.80577,0 -11.70684,-3.10038 -11.70684,-9.28651 0,-5.11123 2.14979,-7.65953 6.45668,-7.65953 2.95778,0 4.44216,1.46975 4.44216,4.43485 0,2.68358 -1.21381,4.03269 -3.63417,4.03269 -2.15709,0 -3.49888,-1.07856 -4.03633,-3.22835 -0.5411,1.07124 -0.80434,1.87924 -0.80434,2.42034 0,4.29958 2.95413,6.45668 8.87337,6.45668 3.22833,0 6.38355,-0.87746 9.48392,-2.62143 3.08575,-1.74761 4.64325,-4.1058 4.64325,-7.05993 0,-3.7731 -2.82982,-5.5134 -8.4785,-5.24285 1.616,-2.69089 4.03634,-4.03268 7.26467,-4.03268 5.37447,0 7.79482,3.35265 7.26103,10.07987 2.68358,-6.99778 7.52426,-10.48935 14.52569,-10.48935 4.29592,0 7.52427,1.07124 9.68137,3.22833 m 35.09859,-125.47015 -62.12816,62.13182 -37.11676,-37.12042 9.68136,-9.68135 c 2.424,-2.42034 5.50609,-3.62686 9.27919,-3.62686 3.22469,0 6.86251,2.01452 10.89519,6.0472 1.87924,-2.42034 2.8225,-4.70541 2.8225,-6.8552 0,-0.5411 -0.13892,-1.21382 -0.40216,-2.02182 l 0.40216,-0.39852 c 3.22469,0.808 6.18248,1.20652 8.87337,1.20652 1.07124,0 4.03634,-0.27055 8.87702,-0.808 l 0.80799,0.808 -26.22156,26.22888 3.22834,3.22834 26.22156,-26.62741 c 4.03269,-3.77309 6.05451,-7.00143 6.05451,-9.68501 0,-0.5411 -0.14244,-1.3491 -0.40948,-2.42034 l 0.40948,-0.80799 c 2.42035,0.80799 4.84069,1.20651 7.25371,1.20651 -0.808,0 2.82982,-0.27055 10.89885,-0.80435 l 0.80434,0.40583 -45.18579,45.18578 3.63417,3.22834 36.71093,-36.71824 c 3.76213,-4.03268 5.64869,-7.26103 5.64869,-9.68137 0,-0.54475 -0.13543,-1.48071 -0.40583,-2.8225 l 0.40583,-0.40583 c 2.68358,0.80799 5.24284,1.21382 7.66319,1.21382 -0.27406,0 3.22834,-0.27055 10.48936,-0.80799 l 0.808,0.40216 z M 384.1634,651.99843 c -0.27406,4.57745 -2.69455,9.14757 -7.26468,13.7177 -2.1571,2.15711 -4.7054,3.22834 -7.65954,3.22834 -4.03633,0 -8.06902,-1.87557 -12.10536,-5.64868 l -39.5371,-39.93926 c -4.30688,-4.0327 -7.94105,-6.05451 -10.89884,-6.05451 -0.5411,0 -1.20651,0.14273 -2.01451,0.40947 l -0.80435,-0.80799 c 0.80435,-2.95779 1.20652,-5.91192 1.20652,-8.87702 0,-1.07124 -0.13541,-4.03268 -0.40217,-8.87702 l 0.808,-0.40582 55.67879,55.67879 c 3.76214,3.76944 7.52427,5.64502 11.29371,5.64502 2.68723,0 6.58464,-2.68358 11.69953,-8.06902 m -88.76288,56.89262 c 0,-2.42034 -1.3491,-3.63417 -4.03268,-3.63417 -2.42034,0 -3.62685,1.34912 -3.62685,4.03269 0,2.42035 1.20651,3.63782 3.62685,3.63782 2.68358,0 4.03268,-1.34545 4.03268,-4.03634 M 287.33151,884.384 c 0,-2.42034 -1.20652,-3.62685 -3.62686,-3.62685 -2.1571,0 -3.22834,1.20651 -3.22834,3.62685 0,2.42034 1.07124,3.63417 3.22834,3.63417 2.42034,0 3.62686,-1.21383 3.62686,-3.63417 m 71.41465,39.94659 -87.95121,0 0,-52.45046 13.30822,0 c 3.49523,0 6.52249,1.14436 9.08541,3.42943 2.5483,2.28506 3.82794,5.03811 3.82794,8.26644 l 0,4.03635 c 4.03269,-0.54477 6.71992,-2.01452 8.06902,-4.43486 l 0.80435,0 c 1.87923,3.49158 5.78395,7.79847 11.70683,12.90971 l 0,0.80799 -37.12041,0 0,4.43485 37.92476,0 c 6.45668,0 10.48936,-1.61599 12.10536,-4.84068 l 0.808,0 c 1.61234,2.42034 5.91191,6.71626 12.9097,12.90971 l 0,1.21382 -63.74782,0 0,4.43485 52.45046,0 c 6.45667,0 10.48935,-1.61599 12.10536,-4.84067 l 0.80434,0 c 1.616,2.68358 5.91192,6.99046 12.90969,12.90969 l 0,1.21383 z m 27.42809,-260.62531 0,13.7177 -119.01347,119.01346 -0.40217,-0.40583 c 0.80801,-2.68358 1.20652,-5.77663 1.20652,-9.27552 0,-3.76214 -0.53379,-7.79848 -1.61234,-12.10536 l 0.40582,-0.40583 c 1.616,0.27055 2.82251,0.40583 3.62686,0.40583 3.22833,0 6.59195,-1.74762 10.09084,-5.24651 l 37.12041,-37.12042 c 0.80435,-0.80434 1.20652,-1.7403 1.20652,-2.81885 0,-1.34179 -0.67272,-2.01452 -2.01451,-2.01452 -0.54476,0 -1.3491,0.53745 -2.42034,1.60869 l -28.2434,28.23974 c -3.22834,3.22835 -7.13306,4.84069 -11.70319,4.84069 -2.69089,0 -5.11123,-0.5338 -7.26102,-1.61234 l 0,-9.68137 c 1.34179,0.5411 3.08941,0.80434 5.24651,0.80434 3.49158,0 6.58464,-1.34179 9.27554,-4.03268 l 26.63105,-26.62009 c 2.14613,-1.88654 4.57013,-2.82982 7.26102,-2.82982 3.49158,0 7.12574,1.75128 10.89519,5.25016 l 3.22834,-3.22833 c -4.3069,-4.03635 -6.45302,-7.67051 -6.45302,-10.89885 0,-3.76213 1.20651,-6.85519 3.62685,-9.27553 l 8.87336,-9.28284 11.70685,11.70318 13.71769,-13.7177 c -1.88655,0.54475 -4.03634,0.808 -6.45668,0.808 -12.64646,0 -23.80854,-3.76213 -33.4899,-11.29736 l 0,-12.1017 c 6.45302,5.11123 12.9097,8.61012 19.36638,10.48935 l 5.64868,-5.25016 -25.01506,-24.60557 c -3.76945,-4.03634 -6.99778,-6.05451 -9.68502,-6.05451 -0.5411,0 -1.3491,0.27055 -2.42034,0.80434 l -0.80434,-0.80434 c 0.80434,-2.95778 1.21383,-5.91557 1.21383,-8.87701 0,-1.07124 -0.14244,-3.89376 -0.40949,-8.47119 l 0.808,-0.80435 49.62794,49.62064 -6.8625,6.45667 0.80799,0 c 11.56061,0.27055 22.45945,-4.69809 32.6746,-14.92421 m -57.28382,26.62739 -37.11676,37.11676 -9.68137,-9.68135 c -2.42033,-2.42034 -3.63415,-5.51341 -3.63415,-9.28285 0,-3.22835 2.01816,-6.85519 6.05449,-10.89153 -2.42034,-1.87924 -4.71271,-2.82617 -6.8625,-2.82617 -0.54476,0 -1.20651,0.14273 -2.01451,0.40582 l -0.40583,-0.40582 c 0.80434,-3.22834 1.21383,-6.18613 1.21383,-8.87702 0,-1.07124 -0.27055,-4.03634 -0.808,-8.87702 l 0.808,-0.80434 26.22157,26.22523 3.22469,-3.22468 -26.62741,-26.22889 c -3.76944,-4.03634 -6.99778,-6.05085 -9.68136,-6.05085 -0.53744,0 -1.34179,0.13894 -2.42034,0.40217 l -0.80799,-0.40217 c 0.80799,-2.42034 1.21383,-4.84068 1.21383,-7.26102 0,0.808 -0.27057,-2.82617 -0.80801,-10.89519 l 0.40217,-0.808 45.18578,45.18579 3.22834,-3.62686 -36.71093,-36.71824 c -4.03634,-3.76213 -7.26102,-5.64869 -9.68501,-5.64869 -0.54112,0 -1.48438,0.14274 -2.82617,0.40949 l -0.39851,-0.40949 c 0.80433,-2.68358 1.2065,-5.23919 1.2065,-7.65953 0,0.27055 -0.27405,-3.22835 -0.80799,-10.49302 l 0.40582,-0.80434 62.13182,62.13181 z m 110.94811,107.31028 -9.68137,9.68503 -168.64506,0 0,-0.808 c 5.64867,-2.69089 10.62463,-7.80579 14.93152,-15.33005 l 0.80434,0 c 2.14979,4.29958 6.58465,6.45302 13.31187,6.45302 l 52.04828,0 c 2.42401,0 3.63052,-0.80434 3.63052,-2.42033 0,-1.61235 -1.20651,-2.42034 -3.63052,-2.42034 l -39.5371,0 c -8.06901,0 -13.45446,-3.62685 -16.13803,-10.88788 l 6.85519,-6.86251 c 2.14979,5.38179 6.31775,8.06903 12.51119,8.06903 l 37.92476,0 c 7.26102,0 10.88787,3.90472 10.88787,11.70318 l 0,2.81885 4.44216,0 0,-4.84067 c 0,-3.22834 1.27233,-5.98504 3.82795,-8.2701 2.55562,-2.28507 5.58287,-3.42578 9.08176,-3.42578 l 12.50387,0 0,16.53655 19.36638,0 c -5.11123,-3.22468 -9.68136,-8.6028 -13.7177,-16.13803 -3.76944,-6.71992 -6.18978,-13.30821 -7.26102,-19.7649 l 8.46754,-8.47484 c 1.07854,8.06902 3.22833,15.20208 6.45667,21.38455 l 7.6705,0 0,-35.10226 c 0,-6.45667 -1.61599,-10.62096 -4.84433,-12.50387 l 0,-0.808 c 3.49158,-1.87923 7.79846,-5.78394 12.91336,-11.69587 l 0.80433,0 0,69.79501 -9.28284,0 c 8.33592,8.87337 19.77586,13.30821 34.29791,13.30821 M 315.5749,978.7919 c -5.64868,-0.27055 -13.24606,2.35087 -22.7958,7.8716 -9.54609,5.50243 -16.33547,8.26644 -20.37181,8.26644 -8.06902,0 -12.1017,-3.08941 -12.1017,-9.27554 0,-4.84067 2.14979,-7.26101 6.45302,-7.26101 3.22835,0 4.84434,1.46975 4.84434,4.43484 0,2.42035 -1.35276,3.63417 -4.03633,3.63417 -2.15711,0 -3.4989,-1.07855 -4.03635,-3.22833 -0.27055,1.07123 -0.40582,1.87923 -0.40582,2.42033 0,4.57013 2.95779,6.8552 8.87701,6.8552 9.14026,0 13.7177,-3.08941 13.7177,-9.27553 0,-3.49889 -2.69089,-5.11123 -8.06902,-4.84068 1.61234,-2.69089 4.03269,-4.03634 7.26103,-4.03634 4.57012,0 6.8625,2.68724 6.8625,8.06902 0,0.808 -0.14244,1.4734 -0.40583,2.0145 2.95413,-6.18977 7.66685,-9.27552 14.12353,-9.27552 4.57013,0 7.92643,1.20651 10.08353,3.62685 m -9.27553,-349.7867 c 0,5.64868 -2.69455,8.47119 -8.06902,8.47119 -3.7731,0 -5.64868,-1.61599 -5.64868,-4.84067 0,-2.9578 1.34179,-4.43486 4.03268,-4.43486 2.68724,0 4.03634,1.3491 4.03634,4.03268 0,0.808 -0.14245,1.47707 -0.40583,2.01452 2.14614,-0.808 3.22469,-2.68358 3.22469,-5.64869 0,-2.95779 -1.61234,-5.57555 -4.84069,-7.86062 -3.22834,-2.28506 -6.31774,-3.43673 -9.27553,-3.43673 -4.84069,0 -7.26103,1.75858 -7.26103,5.25016 0,1.88289 1.3418,3.8974 4.03269,6.04719 -0.808,0.27055 -1.61235,0.40583 -2.42034,0.40583 -5.38544,0 -8.06902,-2.42034 -8.06902,-7.26101 0,-2.68359 1.46975,-5.10392 4.43486,-7.26103 -2.42035,1.07855 -4.84069,1.61234 -7.26103,1.61234 -3.49889,0 -6.85518,-1.41491 -10.08353,-4.23377 -3.22834,-2.82982 -4.97962,-5.98504 -5.25017,-9.48392 4.03635,3.76944 12.77443,7.12573 26.22889,10.08352 11.5606,2.6909 18.68635,6.72724 21.38089,12.10536 0.80435,1.3491 1.21383,2.82617 1.21383,4.43851 m 45.99378,342.52568 0,0.808 -78.67935,0 c -9.9519,0 -14.92421,3.63417 -14.92421,10.89519 l 0,7.26101 c -2.96144,-3.49889 -4.44216,-8.47484 -4.44216,-14.93152 0,-8.06901 5.25016,-12.1017 15.73953,-12.1017 l 56.0773,0 c 7.26102,0 11.70319,-1.61235 13.31918,-4.84068 l 0.80434,0 c 2.14979,3.49158 6.18614,7.79847 12.10537,12.9097 m 71.80586,-117.8033 -49.62064,49.62429 -6.45302,-6.86251 0,0.80435 c 0,11.56059 4.97596,22.45944 14.93154,32.68555 l -13.71771,0 -119.01713,-119.01712 0.39853,-0.40583 c 2.68723,0.80435 5.78394,1.21383 9.27552,1.21383 3.7658,0 7.79848,-0.54475 12.10536,-1.61599 l 0.40583,0.40216 c -0.27055,1.61234 -0.40583,2.82617 -0.40583,3.63417 0,3.22834 1.74762,6.58465 5.24651,10.08354 l 37.12042,37.11676 c 0.80434,0.80799 1.7403,1.2065 2.81885,1.2065 1.34179,0 2.02183,-0.67271 2.02183,-2.0145 0,-0.5411 -0.54111,-1.34911 -1.61235,-2.42034 l -28.24339,-28.23975 c -3.22834,-3.22834 -4.84069,-7.1294 -4.84069,-11.69953 0,-2.69089 0.5338,-5.11123 1.61235,-7.26102 l 9.68502,0 c -0.54476,1.3418 -0.808,3.08575 -0.808,5.24285 0,3.49158 1.34179,6.5883 4.03268,9.28285 l 26.63106,26.6274 c 1.87557,2.14979 2.81885,4.57013 2.81885,7.26102 0,3.49158 -1.74762,7.11844 -5.23919,10.89153 l 3.22468,3.22468 c 4.03634,-4.30323 7.66319,-6.45302 10.89154,-6.45302 3.76212,0 6.8625,1.20651 9.28284,3.62686 l 9.27552,8.87701 -11.69586,11.70319 13.71769,13.7177 c -0.54475,-1.88655 -0.808,-4.03633 -0.808,-6.45667 0,-12.64647 3.76213,-23.80489 11.29737,-33.48992 l 12.10169,0 c -5.11123,6.45669 -8.61011,13.04498 -10.48935,19.77221 l 5.24285,5.24286 24.60557,-25.01507 c 4.03634,-3.76213 6.05816,-6.99046 6.05816,-9.67404 0,-0.54476 -0.27405,-1.35276 -0.80799,-2.42034 l 0.80799,-0.808 c 2.95413,0.808 5.91192,1.20651 8.87336,1.20651 1.07124,0 3.89376,-0.13512 8.47119,-0.39851 l 0.80435,0.80434 z m -167.82976,62.53399 c 0,-2.42034 -1.21383,-3.63417 -3.63417,-3.63417 -2.41303,0 -3.62684,1.21383 -3.62684,3.63417 0,2.14979 1.21381,3.22834 3.62684,3.22834 2.42034,0 3.63417,-1.07855 3.63417,-3.22834 m -2.42034,-242.06694 c 0,-2.14979 -1.21383,-3.22833 -3.62686,-3.22833 -2.42033,0 -3.63416,1.07854 -3.63416,3.22833 0,2.42034 1.21383,3.62686 3.63416,3.62686 2.41303,0 3.62686,-1.20652 3.62686,-3.62686 m 78.26986,283.61855 0,0.808 -69.80232,0 0,-9.27554 c -8.87337,8.33227 -13.30821,19.7649 -13.30821,34.28694 l -9.68503,-9.68136 0,-168.63776 0.808,0 c 2.68358,5.64868 7.79847,10.61732 15.33005,14.92422 l 0,0.808 c -4.30324,2.14979 -6.45302,6.59195 -6.45302,13.31552 l 0,52.04463 c 0,2.42034 0.80799,3.62686 2.42034,3.62686 1.61234,0 2.42033,-1.20652 2.42033,-3.62686 l 0,-39.54075 c 0,-8.06902 3.62685,-13.45081 10.89154,-16.13805 l 6.8625,6.86251 c -5.38544,2.14979 -8.07268,6.3141 -8.07268,12.50387 l 0,37.92476 c 0,7.26102 -3.8974,10.89153 -11.70318,10.89153 l -2.81885,0 0,4.44217 4.84067,0 c 3.22834,0 5.98504,1.26867 8.2701,3.8316 2.28507,2.55195 3.42578,5.5792 3.42578,9.0781 l 0,12.50388 -16.53655,0 0,19.36637 c 3.22833,-5.11489 8.6028,-9.68502 16.13803,-13.7177 6.71992,-3.7731 13.31188,-6.19344 19.7649,-7.26468 l 8.4785,8.47851 c -8.07268,1.07124 -15.20574,3.22468 -21.38821,6.45302 l 0,7.66319 35.10226,0 c 6.45667,0 10.62096,-1.61234 12.50387,-4.84068 l 0.808,0 c 1.87923,3.49157 5.78394,7.79847 11.70318,12.9097 M 222.38083,706.06488 c 0,-2.42399 -1.07855,-3.6305 -3.22834,-3.6305 -2.42034,0 -3.62685,1.20651 -3.62685,3.6305 0,2.42035 1.20651,3.63417 3.62685,3.63417 2.14979,0 3.22834,-1.21382 3.22834,-3.63417 m -7.26467,175.09079 c 0,-2.42034 -1.20652,-3.62685 -3.62686,-3.62685 -2.69089,0 -4.03268,1.34179 -4.03268,4.03633 0,2.42034 1.34179,3.62685 4.03268,3.62685 2.42034,0 3.62686,-1.3491 3.62686,-4.03633 m 30.26522,106.91907 c -4.03634,-3.76944 -12.78174,-7.13305 -26.22889,-10.08718 -11.56791,-2.69455 -18.69365,-6.72723 -21.38088,-12.10535 -0.80801,-1.34911 -1.21383,-2.81887 -1.21383,-4.43486 0,-5.64868 2.68723,-8.47485 8.06901,-8.47485 3.76213,0 5.64869,1.61234 5.64869,4.84068 0,2.95779 -1.34911,4.44217 -4.03269,4.44217 -2.69455,0 -4.03634,-1.3491 -4.03634,-4.03634 0,-0.80434 0.13514,-1.48438 0.40584,-2.01817 -2.15345,0.80434 -3.22469,2.68358 -3.22469,5.64867 0,2.95414 1.61234,5.57557 4.84068,7.86795 3.22834,2.27775 6.31043,3.42576 9.27554,3.42576 4.84067,0 7.26101,-1.74762 7.26101,-5.2392 0,-1.88654 -1.3491,-3.90837 -4.03268,-6.05451 0.80435,-0.27405 1.61234,-0.40216 2.42034,-0.40216 5.37813,0 8.06902,2.42034 8.06902,7.26102 0,2.68723 -1.47706,5.10757 -4.43485,7.26468 2.42034,-1.07855 4.84068,-1.616 7.26102,-1.616 3.49158,0 6.8552,1.40759 10.08353,4.23742 3.22834,2.81886 4.97596,5.98139 5.25017,9.48027 m -2.82983,-383.27659 c 0,4.84433 -2.1571,7.26467 -6.45302,7.26467 -3.22834,0 -4.84433,-1.48072 -4.84433,-4.44217 0,-2.42034 1.34544,-3.62685 4.03633,-3.62685 2.14979,0 3.49158,1.07855 4.03268,3.22469 0.26705,-1.07124 0.40949,-1.87559 0.40949,-2.42034 0,-4.57013 -2.96511,-6.86251 -8.87702,-6.86251 -9.14757,0 -13.71769,3.10038 -13.71769,9.28285 0,3.49888 2.68356,5.11488 8.06901,4.84433 -1.61234,2.69089 -4.03268,4.03268 -7.26102,4.03268 -4.57744,0 -6.8625,-2.68358 -6.8625,-8.06902 0,-0.80799 0.13512,-1.47707 0.40582,-2.02182 -2.96144,6.19344 -7.67051,9.28284 -14.12352,9.28284 -4.57745,0 -7.93375,-1.21382 -10.08354,-3.63417 5.64868,0.27407 13.23875,-2.34722 22.79215,-7.86061 9.54243,-5.51341 16.33912,-8.27742 20.37547,-8.27742 8.06901,0 12.10169,3.10038 12.10169,9.28285 m -5.64867,338.48933 c -0.80435,2.68723 -1.20651,5.25016 -1.20651,7.6705 0,-0.27055 0.26323,3.22835 0.80799,10.48937 l -0.40583,0.808 -62.13547,-62.13182 37.12042,-37.12041 9.68135,9.68501 c 2.42034,2.42034 3.63417,5.5134 3.63417,9.27553 0,3.22834 -2.01817,6.86251 -6.05451,10.89519 2.42034,1.87924 4.70541,2.82252 6.86251,2.82252 0.53745,0 1.20651,-0.13542 2.01451,-0.40218 l 0.40583,0.40218 c -0.808,3.22833 -1.21383,6.18246 -1.21383,8.87701 0,1.07124 0.26324,4.03269 0.808,8.87337 l -0.808,0.808 -26.22156,-26.22158 -3.22835,3.22834 26.63106,26.22157 c 3.76213,4.03268 6.99047,6.05451 9.68136,6.05451 0.53744,0 1.34179,-0.14244 2.42035,-0.40583 l 0.80799,0.40583 c -0.80799,2.42034 -1.21383,4.84068 -1.21383,7.26102 0,-0.80435 0.26325,2.82251 0.808,10.89153 l -0.40216,0.808 -45.18579,-45.18943 -3.22834,3.63417 36.71093,36.71092 c 4.03635,3.76579 7.26103,5.64868 9.68137,5.64868 0.53745,0 1.48071,-0.13542 2.82982,-0.39851 l 0.39852,0.39851 z m 26.62739,-158.1484 -0.80434,0 c -2.69455,-5.64502 -7.80578,-10.62463 -15.3337,-14.93152 l 0,-0.80434 c 4.29958,-2.14979 6.45668,-6.58465 6.45668,-13.31187 l 0,-52.04097 c 0,-2.42034 -0.80799,-3.63417 -2.42033,-3.63417 -1.61235,0 -2.42034,1.21383 -2.42034,3.63417 l 0,39.52979 c 0,8.06901 -3.62686,13.45446 -10.89154,16.13803 l -6.8625,-6.85519 c 5.37812,-2.14979 8.06901,-6.31775 8.06901,-12.51119 l 0,-37.91744 c 0,-7.26103 3.90107,-10.89519 11.70684,-10.89519 l 2.81886,0 0,-4.43485 -4.84067,0 c -3.22835,0 -5.99236,-1.27964 -8.27011,-3.83526 -2.29238,-2.55562 -3.42577,-5.57555 -3.42577,-9.07445 l 0,-12.51118 16.53655,0 0,-19.36638 c -3.22833,5.11123 -8.4127,9.61921 -15.53112,13.51662 -7.13306,3.90106 -13.91879,6.39086 -20.37181,7.4621 l -8.47851,-8.46754 c 8.06903,-1.07124 15.19843,-3.22833 21.38821,-6.45667 l 0,-7.66685 -35.1059,0 c -6.45302,0 -10.62464,1.61234 -12.50022,4.84068 l -0.808,0 c -1.88654,-3.49158 -5.79126,-7.79846 -11.70318,-12.90969 l 0,-0.808 69.79866,0 0,9.28284 c 8.87702,-8.33227 13.31187,-19.77221 13.31187,-34.29791 l 9.68136,9.68503 0,168.6414 z m -92.79189,96.42607 c 0,-2.42399 -1.20652,-3.63782 -3.63051,-3.63782 -2.69089,0 -4.03268,1.21383 -4.03268,3.63782 0,2.68358 1.34179,4.03268 4.03268,4.03268 2.42399,0 3.63051,-1.3491 3.63051,-4.03268 m -1.61601,-126.2818 c 0,-2.68358 -1.3491,-4.03268 -4.03268,-4.03268 -2.42034,0 -3.62685,1.3491 -3.62685,4.03268 0,2.42399 1.3418,3.6305 4.03268,3.6305 2.42034,0 3.62685,-1.20651 3.62685,-3.6305 m -0.39851,-44.37778 c 0,-2.68723 -1.21383,-4.03634 -3.63417,-4.03634 -2.69454,0 -4.03633,1.34911 -4.03633,4.03634 0,2.42034 1.34179,3.63416 4.03633,3.63416 2.42034,0 3.63417,-1.21382 3.63417,-3.63416 m -2.82982,116.59313 c 0,-2.15345 -1.20651,-3.22468 -3.62685,-3.22468 -2.42034,0 -3.63417,1.07123 -3.63417,3.22468 0,2.42399 1.21383,3.63782 3.63417,3.63782 2.42034,0 3.62685,-1.21383 3.62685,-3.63782 m 82.71202,-212.61702 c 0,8.06901 -5.24651,12.10535 -15.73587,12.10535 l -56.07731,0 c -7.26102,0 -11.70319,1.75493 -13.31918,5.24651 l -0.80435,0 c -2.15709,-3.76213 -6.19343,-8.2043 -12.10536,-13.31553 l 0,-0.80799 78.67934,0 c 9.9446,0 14.92422,-3.62686 14.92422,-10.89153 l 0,-7.26103 c 2.95413,3.4989 4.43851,8.46753 4.43851,14.92422 m -16.54386,103.69074 -13.31187,0 c -3.4989,0 -6.52616,-1.14071 -9.08176,-3.43308 -2.55562,-2.27775 -3.82795,-5.04177 -3.82795,-8.27011 l 0,-4.03268 c -4.03268,0.5411 -6.72723,2.01817 -8.06901,4.44216 l -0.80801,0 c -1.88289,-3.49158 -5.79127,-7.79846 -11.70319,-12.91336 l 0,-0.80434 37.12042,0 0,-4.44217 -37.92476,0 c -6.45667,0 -10.49301,1.61236 -12.10535,4.84069 l -0.808,0 c -1.61235,-2.42034 -5.91923,-6.71991 -12.9097,-12.9097 l 0,-1.20651 63.74781,0 0,-4.44217 -52.45046,0 c -6.45667,0 -10.48935,1.61234 -12.10535,4.84068 l -0.80434,0 c -1.616,-2.68358 -5.91924,-6.99047 -12.91336,-12.9097 l 0,-1.20651 87.95488,0 0,52.4468 z m -98.03476,77.86402 c 0,-2.42033 -1.21382,-3.63416 -3.63782,-3.63416 -2.14614,0 -3.22469,1.21383 -3.22469,3.63416 0,2.42034 1.07855,3.62686 3.22469,3.62686 2.424,0 3.63782,-1.20652 3.63782,-3.62686 m 40.74362,31.47174 c 0,3.49158 -1.14071,6.51152 -3.42578,9.07445 -2.28505,2.54831 -5.04176,3.83525 -8.27009,3.83525 l -4.03635,0 c 0.53746,4.03268 2.01452,6.71992 4.43486,8.06902 l 0,0.808 c -3.49889,1.87558 -7.80212,5.77664 -12.90971,11.69588 l -0.80799,0 0,-37.11676 -4.43485,0 0,37.92475 c 0,6.45302 1.61599,10.48936 4.84433,12.1017 l 0,0.808 c -2.42034,1.61235 -6.72722,5.91193 -12.91336,12.9097 l -1.21382,0 0,-63.74415 -4.4312,0 0,52.4468 c 0,6.45667 1.61234,10.48935 4.84068,12.10535 l 0,0.808 c -2.69454,1.61234 -6.99778,5.91191 -12.91335,12.9097 l -1.21383,0 0,-87.95488 52.45046,0 0,13.31919 z m -7.66319,142.41618 c -3.76944,-3.76944 -12.10171,-7.53522 -25.0114,-11.29735 -11.29737,-2.96511 -18.15987,-7.26102 -20.58021,-12.90971 -0.53745,-1.07854 -0.808,-2.29237 -0.808,-3.63416 0,-5.64868 2.69089,-8.4712 8.06902,-8.4712 3.4989,0 5.25016,1.61601 5.25016,4.84069 0,2.68724 -1.21382,4.03634 -3.63782,4.03634 -2.69089,0 -4.03268,-1.3491 -4.03268,-4.03634 0,-0.5411 0.27055,-1.21383 0.80799,-2.01817 -2.68723,0.80434 -4.03633,2.82617 -4.03633,6.05451 0,2.95778 1.616,5.57555 4.84068,7.86062 3.22834,2.28506 6.3214,3.43674 9.28284,3.43674 4.57014,0 6.8552,-1.61601 6.8552,-4.84069 0,-1.88654 -1.20651,-3.90837 -3.62685,-6.05816 0.808,-0.27055 1.47341,-0.39851 2.01451,-0.39851 5.10757,0 7.6705,2.42034 7.6705,7.26102 0,2.68723 -1.48803,5.10757 -4.44216,7.26468 2.14978,-0.808 4.29957,-1.21383 6.45301,-1.21383 3.7658,0 7.19887,1.47707 10.29194,4.43851 3.09307,2.95779 4.6396,6.18612 4.6396,9.68501 m 8.06901,-325.58695 c 0,5.1149 -2.15344,7.6705 -6.45302,7.6705 -2.96509,0 -4.44216,-1.48071 -4.44216,-4.44216 0,-2.68358 1.21382,-4.03634 3.63416,-4.03634 2.14979,0 3.49158,1.07855 4.03634,3.22834 0.53379,-0.80434 0.80434,-1.61234 0.80434,-2.42034 0,-4.29957 -2.96144,-6.45667 -8.87336,-6.45667 -3.22833,0 -6.39087,0.88112 -9.48392,2.62873 -3.09307,1.75128 -4.64326,4.09849 -4.64326,7.05628 0,3.76945 2.82982,5.52071 8.47851,5.24651 -1.61601,2.69455 -4.03635,4.03633 -7.26469,4.03633 -5.38177,0 -7.80211,-3.3636 -7.26101,-10.09084 -2.69089,6.99779 -7.53158,10.48937 -14.5257,10.48937 -4.30323,0 -7.53157,-1.07124 -9.68136,-3.22469 5.91192,-0.26674 13.64457,-3.49523 23.20163,-9.68502 9.53877,-6.18247 16.46709,-9.27553 20.77032,-9.27553 7.79846,0 11.70318,3.09306 11.70318,9.27553 m 23.80124,328.8153 c -0.80435,2.95413 -1.20651,5.91192 -1.20651,8.87336 0,1.07124 0.12811,4.03633 0.40216,8.87701 l -0.80799,0.40218 -55.6788,-55.6788 c -3.76944,-3.76944 -7.53157,-5.64867 -11.29736,-5.64867 -2.69089,0 -6.58829,2.68358 -11.69588,8.06901 0.26705,-4.57743 2.68724,-9.14756 7.26469,-13.7177 2.14613,-2.1571 4.7054,-3.22834 7.65954,-3.22834 4.03633,0 8.06901,1.87924 12.10535,5.64868 l 39.53709,39.94658 c 4.29958,4.03635 7.93375,6.0472 10.89886,6.0472 0.53378,0 1.20651,-0.13513 2.0145,-0.39851 l 0.80435,0.808 z m 37.52624,-157.74989 -0.40583,0.40217 c -1.61599,-0.27406 -2.82251,-0.40217 -3.63051,-0.40217 -3.22469,0 -6.59561,1.74396 -10.08719,5.24286 l -37.12042,37.11676 c -0.80434,0.808 -1.2065,1.75126 -1.2065,2.82981 0,1.34179 0.6654,2.01087 2.0145,2.01087 0.5338,0 1.34179,-0.5411 2.42034,-1.61234 l 28.2434,-28.24341 c 3.22834,-3.22468 7.12575,-4.84067 11.70319,-4.84067 2.68358,0 5.10392,0.53744 7.26103,1.61599 l 0,9.68137 c -1.34912,-0.54111 -3.09673,-0.808 -5.24651,-0.808 -3.4989,0 -6.59196,1.34178 -9.27554,4.03634 l -26.63106,26.62739 c -2.15344,1.87924 -4.57744,2.81886 -7.26102,2.81886 -3.49889,0 -7.13305,-1.74762 -10.89518,-5.2392 l -3.22834,3.22834 c 4.29958,4.03268 6.45302,7.65954 6.45302,10.88788 0,3.76212 -1.20651,6.8625 -3.62686,9.28284 l -8.87701,9.27554 -11.70319,-11.69588 -13.7177,13.7177 c 1.87924,-0.5411 4.03634,-0.80799 6.45667,-0.80799 12.63916,0 23.80855,3.76578 33.48992,11.29735 l 0,12.10536 c -6.45669,-5.11489 -12.90971,-8.61378 -19.36638,-10.48936 l -5.64869,5.23919 25.01507,24.61655 c 3.76213,4.03268 6.99046,6.04719 9.68501,6.04719 0.53379,0 1.34179,-0.27055 2.42034,-0.80799 l 0.80434,0.80799 c -0.80434,2.95779 -1.21382,5.91192 -1.21382,8.87702 0,1.07124 0.13512,3.89741 0.40948,8.47484 l -0.808,0.808 -49.62794,-49.62794 6.8625,-6.45667 -0.808,0 c -11.56791,0 -22.45944,4.97596 -32.67824,14.93152 l 0,-13.71771 119.01713,-119.01711 0.40216,0.40216 c -0.808,2.68358 -1.20651,5.78396 -1.20651,9.28285 0,3.76214 0.53378,7.79482 1.61234,12.1017 m -122.6513,101.66526 c 0,4.29958 -1.07854,7.52426 -3.22833,9.68136 -0.27055,-5.91923 -3.49889,-13.65189 -9.68136,-23.19066 -6.193443,-9.55705 -9.275533,-16.48171 -9.275533,-20.78129 0,-7.80578 3.08209,-11.70318 9.275533,-11.70318 5.10392,0 7.66685,2.14979 7.66685,6.45302 0,2.95778 -1.48438,4.44216 -4.43851,4.44216 -2.69456,0 -4.03635,-1.21382 -4.03635,-3.63416 0,-2.14979 1.07124,-3.49889 3.22835,-4.03268 -1.07855,-0.53745 -1.88656,-0.808 -2.42034,-0.808 -4.306903,0 -6.456683,2.95413 -6.456683,8.87701 0,3.22468 0.87015,6.39087 2.62143,9.48027 1.74761,3.09307 4.098483,4.64326 7.063593,4.64326 3.76213,0 5.50974,-2.82982 5.24651,-8.47484 2.68723,1.61234 4.03633,4.03268 4.03633,7.26102 0,5.37812 -3.37092,7.79846 -10.09084,7.26101 6.99047,2.68724 10.48935,7.52793 10.48935,14.5257 m 69.79501,-162.59056 -9.68501,9.68502 c -2.42034,2.42034 -5.50975,3.63417 -9.27553,3.63417 -3.22469,0 -6.86251,-2.02183 -10.89519,-6.05816 -1.88656,2.42399 -2.82252,4.71637 -2.82252,6.8625 0,0.54476 0.13162,1.20651 0.40218,2.01451 l -0.40218,0.40949 c -3.22468,-0.808 -6.18977,-1.21749 -8.87335,-1.21749 -1.07855,0 -4.03635,0.27406 -8.87703,0.808 l -0.808,-0.808 26.22158,-26.21792 -3.22834,-3.22834 -26.22157,26.62741 c -4.03268,3.76944 -6.05451,6.99778 -6.05451,9.68136 0,0.54475 0.13513,1.35275 0.40583,2.42399 l -0.40583,0.80434 c -2.42034,-0.80434 -4.84068,-1.21383 -7.25371,-1.21383 0.80435,0 -2.82982,0.27057 -10.89884,0.80801 l -0.80434,-0.39852 45.18577,-45.18943 -3.63416,-3.22834 -36.71093,36.71093 c -3.76944,4.03634 -5.64868,7.26467 -5.64868,9.68501 0,0.54112 0.13542,1.48438 0.40582,2.82617 l -0.40582,0.40218 c -2.6909,-0.808 -5.242853,-1.20652 -7.663193,-1.20652 0.26324,0 -3.22834,0.27055 -10.48937,0.80434 l -0.808,-0.40582 62.128163,-62.1245 37.11676,37.10944 z m 68.98701,24.61654 -0.39851,0.39852 c -2.69455,-0.80801 -5.78395,-1.20652 -9.27553,-1.20652 -3.77311,0 -7.80579,0.5411 -12.10536,1.61234 l -0.40582,-0.40582 c 0.26323,-1.61234 0.40582,-2.82251 0.40582,-3.62686 0,-3.22833 -1.75493,-6.59195 -5.25017,-10.09084 l -37.11676,-37.11676 c -0.808,-0.808 -1.74761,-1.20651 -2.81885,-1.20651 -1.35275,0 -2.02183,0.66906 -2.02183,2.01085 0,0.54476 0.5338,1.3491 1.61234,2.42034 l 28.24341,28.24341 c 3.22833,3.22833 4.84067,7.13305 4.84067,11.70318 0,2.69454 -0.5411,5.11488 -1.61234,7.26467 l -9.68502,0 c 0.53745,-1.34544 0.808,-3.09306 0.808,-5.25016 0,-3.49158 -1.3491,-6.58464 -4.03634,-9.27554 l -26.62739,-26.6274 c -1.88289,-2.14978 -2.81886,-4.57012 -2.81886,-7.26467 0,-3.49158 1.74031,-7.12574 5.2392,-10.88787 l -3.22468,-3.22834 c -4.03634,4.29958 -7.6632,6.45667 -10.89154,6.45667 -3.76943,0 -6.8625,-1.21383 -9.28284,-3.63417 l -9.27554,-8.87701 11.69588,-11.69587 -13.7177,-13.7177 c 0.53744,1.88289 0.808,4.03268 0.808,6.45301 0,12.64647 -3.76944,23.80124 -11.29736,33.4826 l -12.10536,0 c 5.11489,-6.45302 8.60646,-12.9097 10.49302,-19.36273 l -5.24285,-5.64867 -24.60558,25.0114 c -4.036343,3.7731 -6.058163,6.99778 -6.058163,9.68502 0,0.5411 0.26704,1.3491 0.80799,2.42034 l -0.80799,0.80799 c -2.96144,-0.80799 -5.91923,-1.21382 -8.87336,-1.21382 -1.07855,0 -3.90107,0.14273 -8.4712,0.40583 l -0.80799,-0.808 49.624283,-49.62063 6.45302,6.85519 0,-0.80799 c 0.26675,-11.56061 -4.71271,-22.44849 -14.93152,-32.6746 l 13.71771,0 119.01711,119.01712 z M 112.64656,672.57864 c 0,3.49888 -1.61235,5.24285 -4.84068,5.24285 -2.69456,0 -4.03635,-1.20652 -4.03635,-3.62686 0,-2.68723 1.34179,-4.03633 4.03635,-4.03633 0.53378,0 1.20651,0.27055 2.0145,0.808 -0.80799,-2.68359 -2.82251,-4.03634 -6.05085,-4.03634 -2.96144,0 -5.590183,1.616 -7.867933,4.84433 -2.29238,3.22469 -3.42942,6.31775 -3.42942,9.27554 0,4.57745 1.61599,6.8625 4.84433,6.8625 1.87558,0 3.890093,-1.21383 6.047203,-3.63416 0.26323,0.80434 0.40582,1.48438 0.40582,2.01817 0,5.11488 -2.42034,7.66319 -7.261023,7.66319 -2.69089,0 -5.11488,-1.46975 -7.26101,-4.43485 0.80434,2.15709 1.20651,4.30688 1.20651,6.45668 0,3.76944 -1.41492,7.19886 -4.23742,10.28095 -2.82617,3.10038 -6.11667,4.64326 -9.882453,4.64326 3.765783,-3.76579 7.527913,-12.10536 11.297353,-25.01506 2.9578,-11.29736 7.26103,-18.15255 12.909703,-20.57289 1.07124,-0.53379 2.27775,-0.808 3.63052,-0.808 5.64867,0 8.47485,2.69455 8.47485,8.06902 m 128.69848,111.34662 c -5.64867,2.69455 -10.63195,7.80578 -14.93153,15.3337 l -0.808,0 c -2.15344,-4.29958 -6.58829,-6.45668 -13.30821,-6.45668 l -52.05194,0 c -2.42034,0 -3.62686,0.80799 -3.62686,2.42034 0,1.61599 1.20652,2.42033 3.62686,2.42033 l 39.54075,0 c 8.06902,0 13.44716,3.63783 16.13805,10.89886 l -6.8552,6.85518 c -2.1571,-5.38543 -6.32506,-8.06901 -12.51118,-8.06901 l -37.92476,0 c -7.26102,0 -10.88788,-3.90107 -10.88788,-11.69588 l 0,-2.82982 -4.44216,0 0,4.84067 c 0,3.22835 -1.27964,5.98504 -3.82795,8.27011 -2.56293,2.28507 -5.58286,3.43674 -9.08541,3.43674 l -12.50022,0 0,-16.54752 -19.366383,0 c 5.103923,3.22833 9.611903,8.40538 13.516623,15.53112 3.89009,7.12575 6.38355,13.9261 7.46211,20.37913 l -8.46754,8.47119 c -1.07854,-8.06903 -3.22833,-15.19477 -6.45668,-21.3809 l -7.670503,0 0,35.09859 c 0,6.45302 1.61599,10.62464 4.840683,12.50387 l 0,0.80435 c -3.498893,1.88654 -7.802123,5.78395 -12.909703,11.70685 l -0.80434,0 0,-69.79501 9.28284,0 c -8.34323,-8.87703 -19.77586,-13.31919 -34.297898,-13.31919 l 9.681356,-9.68136 168.645075,0 0,0.80434 z M 93.678687,748.4245 c 0,3.76944 -1.61234,5.64502 -4.84068,5.64502 -2.96144,0 -4.43486,-1.34179 -4.43486,-4.03268 0,-2.68358 1.34545,-4.03633 4.03635,-4.03633 0.808,0 1.46975,0.14272 2.01451,0.40947 -0.808,-2.14979 -2.69455,-3.22834 -5.64868,-3.22834 -2.96511,0 -5.58653,1.61234 -7.871598,4.84069 -2.285058,3.22834 -3.425766,6.3214 -3.425766,9.27553 0,4.84069 1.747622,7.26468 5.246514,7.26468 1.87923,0 3.89374,-1.34545 6.05085,-4.03633 0.26324,0.80799 0.40582,1.61234 0.40582,2.42033 0,5.38544 -2.42034,8.06902 -7.26102,8.06902 -2.694542,0 -5.114881,-1.46975 -7.264669,-4.43486 1.071228,2.42035 1.615996,4.84435 1.615996,7.26468 0,3.49889 -1.414913,6.8552 -4.241084,10.07988 -2.822516,3.22834 -5.98504,4.98693 -9.476619,5.25017 3.76213,-4.03635 7.118428,-12.77443 10.083534,-26.22889 2.683581,-11.5606 6.719916,-18.68635 12.101692,-21.38089 1.34179,-0.80435 2.82983,-1.21383 4.44217,-1.21383 5.64869,0 8.46754,2.69455 8.46754,8.07268 m -5.64502,135.56099 c -3.49889,2.14979 -7.80579,6.18247 -12.913363,12.10171 l -0.804343,0 0,-78.66838 c 0,-9.95556 -3.630503,-14.93152 -10.891531,-14.93152 l -7.261018,0 c 3.491579,-2.96511 8.467538,-4.43486 14.924212,-4.43486 8.069013,0 12.101703,5.2392 12.101703,15.72856 l 0,56.07731 c 0,7.26467 1.616,11.70684 4.84434,13.31918 l 0,0.808 z M 125.15043,677.42298 c 0,4.03268 -1.88655,8.06902 -5.64868,12.1017 l -39.939283,39.53344 c -4.032677,4.30323 -6.054504,7.9374 -6.054504,10.89519 0,0.54475 0.135133,1.20651 0.405832,2.01451 l -0.804344,0.808 c -2.965106,-0.808 -5.922892,-1.21017 -8.877024,-1.21017 -1.078548,0 -4.036334,0.13893 -8.877012,0.40217 l -0.405832,-0.808 55.675147,-55.66782 c 3.76578,-3.76579 5.64867,-7.52792 5.64867,-11.29737 0,-2.68723 -2.69089,-6.59195 -8.06901,-11.70318 4.57013,0.27055 9.14025,2.69089 13.7177,7.26102 2.14979,2.1571 3.22834,4.71271 3.22834,7.67051 M 72.301454,828.71253 c 0,4.57012 -2.694556,6.85518 -8.069027,6.85518 -0.807997,0 -1.484369,-0.13512 -2.021816,-0.39851 6.182469,2.95779 9.282845,7.6632 9.282845,14.11621 0,4.57013 -1.21383,7.93375 -3.634169,10.09085 0.263242,-5.64868 -2.358191,-13.25337 -7.867932,-22.79946 -5.513406,-9.54608 -8.270109,-16.33912 -8.270109,-20.37181 0,-8.06902 3.093067,-12.10535 9.282845,-12.10535 4.840678,0 7.261017,2.14979 7.261017,6.45667 0,3.22469 -1.484369,4.84068 -4.442155,4.84068 -2.420351,0 -3.62686,-1.3491 -3.62686,-4.03633 0,-2.15345 1.071239,-3.49889 3.228337,-4.03268 -1.078549,-0.27055 -1.886547,-0.40217 -2.420339,-0.40217 -4.577437,0 -6.862506,2.95779 -6.862506,8.87701 0,9.14026 3.093067,13.7177 9.282845,13.7177 3.491578,0 5.107574,-2.69088 4.840678,-8.06902 2.687235,1.61599 4.036346,4.03634 4.036346,7.26103"
       style="fill:#373535;fill-opacity:1;fill-rule:nonzero;stroke:none"
       id="path90"
       inkscape:connector-curvature="0" />
  </g>
</svg>
