<?xml version="1.0" encoding="UTF-8" standalone="no"?>
<!-- Created with Inkscape (http://www.inkscape.org/) -->

<svg
   xmlns:dc="http://purl.org/dc/elements/1.1/"
   xmlns:cc="http://creativecommons.org/ns#"
   xmlns:rdf="http://www.w3.org/1999/02/22-rdf-syntax-ns#"
   xmlns:svg="http://www.w3.org/2000/svg"
   xmlns="http://www.w3.org/2000/svg"
   xmlns:sodipodi="http://sodipodi.sourceforge.net/DTD/sodipodi-0.dtd"
   xmlns:inkscape="http://www.inkscape.org/namespaces/inkscape"
   width="64px"
   height="64px"
   id="svg2993"
   version="1.1"
   inkscape:version="0.48.4 r9939"
   sodipodi:docname="logo.svg">
  <defs
     id="defs2995" />
  <sodipodi:namedview
     id="base"
     pagecolor="#ffffff"
     bordercolor="#666666"
     borderopacity="1.0"
     inkscape:pageopacity="0.0"
     inkscape:pageshadow="2"
     inkscape:zoom="5.5"
     inkscape:cx="32"
     inkscape:cy="24.727273"
     inkscape:current-layer="layer1"
     showgrid="true"
     inkscape:document-units="px"
     inkscape:grid-bbox="true"
     inkscape:window-width="1301"
     inkscape:window-height="744"
     inkscape:window-x="65"
     inkscape:window-y="24"
     inkscape:window-maximized="1" />
  <metadata
     id="metadata2998">
    <rdf:RDF>
      <cc:Work
         rdf:about="">
        <dc:format>image/svg+xml</dc:format>
        <dc:type
           rdf:resource="http://purl.org/dc/dcmitype/StillImage" />
        <dc:title></dc:title>
      </cc:Work>
    </rdf:RDF>
  </metadata>
  <g
     id="layer1"
     inkscape:label="Layer 1"
     inkscape:groupmode="layer">
    <path
       style="fill:#000000;fill-opacity:1;fill-rule:nonzero;stroke:none"
       id="path3001"
       d="m 8.6599779,52.377741 c 0.637509,-1.331555 1.211365,-2.691513 1.8560951,-4.019708 0.741095,-1.621032 1.700009,-3.124198 2.729993,-4.573649 0.681592,-0.982188 1.418238,-1.92427 2.074279,-2.923968 0.702691,-1.12134 1.143249,-2.375153 1.582473,-3.615688 0.496158,-1.442181 1.002809,-2.881248 1.472831,-4.332203 0.279425,-1.045872 0.768209,-2.00128 1.252896,-2.960542 0.386655,-0.825742 0.844966,-1.61398 1.287128,-2.410399 0.560493,-1.005347 1.036116,-2.054895 1.502593,-3.106211 0.51048,-1.213542 1.020717,-2.42551 1.588759,-3.613356 0.525746,-1.135271 1.037939,-2.276611 1.585152,-3.401806 0.364454,-0.652474 0.70523,-1.316831 1.05297,-1.97805 0.267982,-0.518584 0.545355,-1.031046 0.850357,-1.528728 0.271457,-0.428249 0.462735,-0.90091 0.673693,-1.360514 0.1962,-0.498502 0.390646,-0.997295 0.616064,-1.483476 0.115246,-0.204541 0.216055,-0.416489 0.316788,-0.628363 0,0 3.397997,-1.5390422 3.397997,-1.5390422 l 0,0 c -0.109591,0.2126493 -0.193625,0.4345197 -0.313686,0.6417289 -0.281905,0.4477005 -0.443791,0.9647283 -0.631226,1.4569833 -0.200804,0.477219 -0.419488,0.948519 -0.647996,1.412457 -0.325238,0.486026 -0.616776,0.989689 -0.877885,1.513414 -0.374094,0.653485 -0.670067,1.347865 -1.085851,1.979066 -0.584846,1.115747 -1.110886,2.260346 -1.624339,3.410467 -0.563447,1.18393 -1.094067,2.38084 -1.58207,3.598432 -0.461813,1.052727 -0.921183,2.109026 -1.463636,3.123349 -0.432229,0.79668 -0.894414,1.577039 -1.289912,2.393093 -0.461816,0.969753 -1.042086,1.884544 -1.321921,2.93539 -0.474538,1.453542 -0.990474,2.893682 -1.476497,4.343517 -0.436754,1.248713 -0.841481,2.520286 -1.503553,3.673364 -0.649996,1.030129 -1.412409,1.976077 -2.121047,2.965653 -1.047581,1.428477 -2.036268,2.905185 -2.770572,4.524209 -0.634261,1.291178 -1.199407,2.612537 -1.738483,3.946138 0,0 -3.3913941,1.558442 -3.3913941,1.558442 z"
       inkscape:connector-curvature="0" />
    <path
       style="fill:#000000;fill-opacity:1;fill-rule:nonzero;stroke:none"
       id="path3003"
       d="m 32.473669,8.7522628 c 0.186245,0.7285617 0.461784,1.4289112 0.776561,2.1106222 0.363357,0.869631 0.732647,1.735348 1.059067,2.619725 0.303816,1.009674 0.624318,2.012833 0.953714,3.014676 0.400094,1.306577 0.80875,2.61041 1.228194,3.910936 0.464733,1.522666 0.822754,3.073166 1.201872,4.618184 0.304149,1.473915 0.705808,2.92494 1.028235,4.394553 0.321158,1.47808 0.65748,2.952905 0.973695,4.432045 0.349766,1.535878 0.65313,3.082279 1.059576,4.60464 0.409571,1.429184 0.907519,2.832762 1.419953,4.228138 0.505439,1.294875 0.979586,2.599222 1.447457,3.907932 0.35647,0.979434 0.753266,1.944157 1.108606,2.92375 0.268581,0.706016 0.613089,1.380177 0.951441,2.05471 0.300458,0.638915 0.613902,1.272792 0.827274,1.946904 0.09504,0.198709 0.136008,0.425796 0.254815,0.613773 0.0104,0.01648 0.04721,0.05752 0.0443,0.03827 -0.0094,-0.06195 -0.0093,-0.204964 -0.06517,-0.176359 -1.125436,0.575962 -2.191194,1.261191 -3.286793,1.891788 0.130145,-0.372629 0.0921,-0.802618 0.09494,-1.194742 0.03069,-0.572907 -0.01947,-1.135633 -0.102979,-1.701448 -0.108607,-0.629844 -0.128427,-1.267438 -0.13806,-1.904793 -0.0097,-1.028956 0.0036,-2.058121 0.01067,-3.087103 0.01932,-1.462469 -0.01178,-2.925524 0.04208,-4.387234 0.107165,-1.725258 0.430119,-3.421812 0.793634,-5.108236 0.455064,-2.005119 0.955208,-3.999833 1.464258,-5.991901 0.488894,-1.866731 1.022641,-3.721329 1.553325,-5.576545 0.463532,-1.701924 0.791452,-3.435372 1.186709,-5.153403 0.364686,-1.435484 0.720257,-2.874481 1.145182,-4.29375 0.197528,-0.804028 0.499107,-1.573155 0.760602,-2.356555 0.232351,-0.697948 0.439299,-1.405267 0.729594,-2.081983 0.281862,-0.522208 0.432675,-1.092416 0.603735,-1.655738 0.02322,-0.08473 0.04643,-0.169453 0.06965,-0.254179 0,0 3.461221,-1.6514431 3.461221,-1.6514431 l 0,0 c -0.0214,0.089438 -0.04281,0.1788698 -0.06421,0.2683054 -0.170552,0.5802277 -0.312234,1.1737217 -0.595053,1.7131197 -0.329485,0.649719 -0.51488,1.35235 -0.756235,2.037443 -0.230885,0.802557 -0.595957,1.560961 -0.796395,2.374646 -0.463129,1.414645 -0.851107,2.851349 -1.213093,4.294781 -0.403332,1.724701 -0.730455,3.466623 -1.193844,5.17718 -0.528099,1.857482 -1.069636,3.711211 -1.572736,5.575686 -0.518259,1.981842 -1.005506,3.972046 -1.455252,5.970498 -0.354082,1.663728 -0.668558,3.335651 -0.788075,5.035272 -0.06441,1.452577 -0.01961,2.907017 -0.02291,4.360684 0.0067,1.018857 0.01317,2.037695 0.03128,3.056426 0.01755,0.619907 0.03931,1.241022 0.130672,1.855416 0.08488,0.580799 0.175437,1.157231 0.138142,1.746833 0.0013,0.436022 -0.0028,0.872085 4e-5,1.308024 -3.110423,1.900023 -3.066578,3.142588 -3.824573,1.089693 -0.187121,-0.660957 -0.488438,-1.279261 -0.785334,-1.897054 -0.337946,-0.691833 -0.69824,-1.375587 -0.960558,-2.101113 -0.342725,-0.986551 -0.716083,-1.96271 -1.069582,-2.945578 -0.460522,-1.311023 -0.921544,-2.619953 -1.428739,-3.914095 -0.51196,-1.407911 -1.025387,-2.818056 -1.430744,-4.260919 -0.40261,-1.529696 -0.714179,-3.080027 -1.066696,-4.621592 -0.313571,-1.477856 -0.660727,-2.948534 -0.985645,-4.423929 -0.316002,-1.469201 -0.703001,-2.922291 -1.006943,-4.39434 -0.37963,-1.535263 -0.73076,-3.077595 -1.194527,-4.590902 -0.42766,-1.294634 -0.852766,-2.590105 -1.268574,-3.888582 -0.324434,-0.997905 -0.659207,-1.991885 -0.964093,-2.995708 -0.310371,-0.877842 -0.683958,-1.729233 -1.046381,-2.586521 -0.330054,-0.689133 -0.604839,-1.399155 -0.841718,-2.125462 0,0 3.374375,-1.8534462 3.374375,-1.8534462 z"
       inkscape:connector-curvature="0" />
    <path
       style="fill:#000000;fill-opacity:1;fill-rule:nonzero;stroke:none"
       id="path3005"
       d="m 19.969602,35.935654 c 1.371479,-0.793065 -1.35155,0.781874 -2.579622,1.48094 -0.127387,0.07252 0.251015,-0.151432 0.375571,-0.228699 0.402363,-0.249601 0.799207,-0.507932 1.20116,-0.758232 0.147153,-0.08793 0.293052,-0.178003 0.441459,-0.263803 1.198969,-0.693183 2.393094,-1.394949 3.60062,-2.073116 0.632088,-0.354993 1.358879,-0.584247 2.029968,-0.85279 1.205951,-0.38061 2.430956,-0.703727 3.658118,-1.009078 0.931802,-0.238747 1.836576,-0.572077 2.774333,-0.787201 0.566994,-0.150352 1.115119,-0.371335 1.688955,-0.491864 0.650538,-0.139691 1.297055,-0.269376 1.960165,-0.335531 0.604377,-0.05333 1.211368,-0.06344 1.817731,-0.0627 0.5758,3.03e-4 1.151598,4.12e-4 1.727398,4.73e-4 0.339934,-0.03277 0.658336,0.02378 0.987046,0.09886 0,0 -3.063624,2.136392 -3.063624,2.136392 l 0,0 c -0.310933,-0.0503 -0.621841,-0.05412 -0.936713,-0.04678 -0.573494,-0.0019 -1.147008,-0.0058 -1.720497,-0.0011 -0.596253,0.01 -1.193608,0.01929 -1.786585,0.08926 -0.654211,0.08621 -1.296576,0.231573 -1.938941,0.38103 -0.558721,0.165671 -1.115044,0.339848 -1.680825,0.480987 -0.913754,0.23289 -1.809959,0.530468 -2.726078,0.755505 -1.221414,0.316003 -2.451328,0.617871 -3.63639,1.054461 -0.518177,0.210282 -1.038954,0.416117 -1.542732,0.659776 -0.156949,0.07591 -0.615801,0.326709 -0.465894,0.237697 0.74257,-0.440919 3.918833,-2.26973 2.242182,-1.298072 -1.769466,1.076112 -3.464489,2.279424 -5.345836,3.168547 0,0 2.919031,-2.334949 2.919031,-2.334949 z"
       inkscape:connector-curvature="0" />
  </g>
</svg>
